<?xml version="1.0" encoding="UTF-8"?>
<svg width="27px" height="28px" viewBox="0 0 27 28" version="1.1" xmlns="http://www.w3.org/2000/svg" xmlns:xlink="http://www.w3.org/1999/xlink">
    <title>审批</title>
    <defs>
        <path d="M5.09091016,2.00000233 L1.91591238,2.00000233 L1.91591228,2.00000233 C0.908448216,2.00110464 0.0920117194,2.81754039 0.0909101557,3.82500445 L0.0909101557,18.1750211 C0.0909101557,19.1800223 0.907911106,20.0000233 1.91591228,20.0000233 L16.265929,20.0000233 L16.2659289,20.0000233 C17.273393,19.998921 18.0898295,19.1824852 18.090931,18.1750211 L18.090931,3.82500445 L18.090931,3.82500858 C18.0898311,2.81754452 17.2733969,2.00110607 16.2659328,2.00000233 L13.0909291,2.00000233 L13.0909291,2.18000276 C13.0909291,3.18700394 12.2799282,4.00000233 11.275927,4.00000233 L6.90592194,4.00000233 L6.90592186,4.00000233 C5.9024207,3.99890164 5.08981428,3.18450784 5.09091016,2.18100667 C5.09091016,2.18067215 5.09091016,2.18033762 5.09091016,2.18000309 L5.09091016,2.00000233 L5.09091016,2.00000233 Z M13.7659262,9.50801888 L9.07592071,14.8880251 C8.95192057,15.0800254 8.70092027,15.2160255 8.42391995,15.2160255 C8.2059197,15.2160255 7.9509194,15.1570254 7.7759192,14.9960253 L4.99591596,12.6280147 L4.99591595,12.6280147 C4.63484327,12.2862838 4.5883354,11.7277558 4.88791583,11.3310132 C5.28191628,10.9270127 5.82591692,10.8990127 6.19991735,11.211013 L8.30691199,12.9910151 L12.3889089,8.30100965 C12.7549094,7.92900922 13.29891,7.90300919 13.6739104,8.21600955 C14.0509109,8.59000999 14.0779109,9.13401062 13.7659105,9.50801105 L13.7659262,9.50801888 Z M6.09091189,1.5 C6.09091189,0.672000782 6.75591801,1.3877804e-15 7.58991898,1.3877804e-15 L10.5909119,1.3877804e-15 C11.4209195,1.3877804e-15 12.0909119,0.666000775 12.0909119,1.5 C12.0909119,2.32800271 11.4259195,3 10.5919186,3 L7.59091189,3 L7.59091189,3 C6.7647032,3.0022156 6.09313015,2.33422928 6.09091189,1.50801347 C6.09091189,1.50534324 6.09091189,1.50267298 6.09091189,1.5 L6.09091189,1.5 Z" id="path-1"></path>
        <filter x="-38.9%" y="-25.0%" width="177.8%" height="170.0%" filterUnits="objectBoundingBox" id="filter-2">
            <feOffset dx="0" dy="2" in="SourceAlpha" result="shadowOffsetOuter1"></feOffset>
            <feGaussianBlur stdDeviation="2" in="shadowOffsetOuter1" result="shadowBlurOuter1"></feGaussianBlur>
            <feColorMatrix values="0 0 0 0 0.301960784   0 0 0 0 0.345098039   0 0 0 0 0.396078431  0 0 0 0.2 0" type="matrix" in="shadowBlurOuter1"></feColorMatrix>
        </filter>
    </defs>
    <g id="PC端样稿" stroke="none" stroke-width="1" fill="none" fill-rule="evenodd">
        <g id="侧边导航icon" transform="translate(-47.000000, -268.000000)" fill-rule="nonzero">
            <g id="形状" transform="translate(51.000000, 270.000000)">
                <use fill="black" fill-opacity="1" filter="url(#filter-2)" xlink:href="#path-1"></use>
                <use fill="#4D5865" xlink:href="#path-1"></use>
            </g>
        </g>
    </g>
</svg>