<?xml version="1.0" encoding="UTF-8"?>
<svg width="12px" height="8px" viewBox="0 0 12 8" version="1.1" xmlns="http://www.w3.org/2000/svg" xmlns:xlink="http://www.w3.org/1999/xlink">
    <title>路径备份 5</title>
    <g id="PC端样稿" stroke="none" stroke-width="1" fill="none" fill-rule="evenodd">
        <g id="部门管理" transform="translate(-298.000000, -242.000000)" fill="#8B92B8" fill-rule="nonzero">
            <g id="部门1" transform="translate(277.251217, 182.000000)">
                <path d="M25.9694085,67.6353519 L21.00534,61.7741015 L21.0053401,61.7741016 C20.6286299,61.3298861 20.6717923,60.6542643 21.1017462,60.2650532 C21.2907235,60.093986 21.5334754,59.9997786 21.7847276,60 L31.7128524,60 L31.7128524,60 C32.2844907,59.999494 32.7482925,60.4778599 32.7487829,61.0684587 C32.7489979,61.3280452 32.6578149,61.5788494 32.4922395,61.7740953 L27.528171,67.6342804 L27.528171,67.6342804 C27.1520212,68.0790022 26.498148,68.1244762 26.0677057,67.7358493 C26.0327702,67.7043076 25.9999268,67.6703749 25.9693978,67.6342804 L25.9694085,67.6353519 Z" id="路径备份-5" transform="translate(26.748783, 64.000000) rotate(-360.000000) translate(-26.748783, -64.000000) "></path>
            </g>
        </g>
    </g>
</svg>