<?xml version="1.0" encoding="UTF-8"?>
<svg width="16px" height="17px" viewBox="0 0 16 17" version="1.1" xmlns="http://www.w3.org/2000/svg" xmlns:xlink="http://www.w3.org/1999/xlink">
    <title>形状</title>
    <g id="PC端样稿" stroke="none" stroke-width="1" fill="none" fill-rule="evenodd">
        <g id="首页" transform="translate(-1809.000000, -31.000000)" fill="#8B92B8" fill-rule="nonzero">
            <g id="导航" transform="translate(240.000000, 0.000000)">
                <g id="退出" transform="translate(1553.000000, 20.000000)">
                    <path d="M24.2955459,20.605 C23.8723037,20.605 23.4490616,20.265 23.4490616,19.755 L23.4490616,11.85 C23.4490616,11.425 23.7876553,11 24.2955459,11 C24.8034364,11 25.1420301,11.34 25.1420301,11.85 L25.1420301,19.84 C25.1420301,20.265 24.8034364,20.605 24.2955459,20.605 L24.2955459,20.605 Z M24.0416006,28 C19.6398824,28 16,24.345 16,19.925 C16,17.375 17.2697264,14.91 19.3012887,13.38 C19.6398824,13.125 20.1477729,13.21 20.4863666,13.55 C20.7403119,13.89 20.6556635,14.4 20.3170698,14.655 C18.6241012,15.845 17.6929685,17.8 17.6929685,19.84 C17.6929685,23.41 20.5710151,26.215 24.0416006,26.215 C27.5121861,26.215 30.3902326,23.325 30.3902326,19.84 C30.3902326,17.8 29.4590999,15.93 27.7661314,14.655 C27.5121861,14.485 27.3428893,14.06 27.4275377,13.72 C27.5121861,13.38 27.8507798,13.125 28.1893735,13.125 C28.3586704,13.125 28.5279672,13.21 28.6972641,13.295 C30.8134748,14.825 31.9985528,17.29 31.9985528,19.84 C32.0832012,24.345 28.4433188,28 24.0416006,28 Z" id="形状"></path>
                </g>
            </g>
        </g>
    </g>
</svg>