<?xml version="1.0" encoding="UTF-8"?>
<svg width="28px" height="28px" viewBox="0 0 28 28" version="1.1" xmlns="http://www.w3.org/2000/svg" xmlns:xlink="http://www.w3.org/1999/xlink">
    <title>使用</title>
    <defs>
        <path d="M18.4051889,16.1063581 L1.73090738,16.1063581 C0.888241467,16.1063581 0.205514978,16.7890846 0.205514978,17.6317505 C0.205514978,18.4744164 0.888241467,19.1571429 1.73090738,19.1571429 L18.4051889,19.1571429 C19.2478548,19.1571429 19.9305813,18.4744164 19.9305813,17.6317505 C19.9305813,16.7890846 19.2478548,16.1063581 18.4051889,16.1063581 Z M18.4505449,0.124351689 L1.59722667,0.124351689 C0.780819467,0.124351689 0.117190222,0.787980933 0.117190222,1.60438813 L0.117190222,13.1009293 C0.117190222,13.9173365 0.780819467,14.5809657 1.59722667,14.5809657 L18.4505449,14.5809657 C19.2669521,14.5809657 19.9305813,13.9173365 19.9305813,13.1009293 L19.9305813,1.60438813 C19.9305813,0.785593778 19.2669521,0.124351689 18.4505449,0.124351689 Z M14.7552281,5.41906271 L9.87349498,10.3007958 C9.73026564,10.4440252 9.53690604,10.5251884 9.33399782,10.5251884 L9.32922351,10.5251884 C9.12631529,10.5251884 8.93056853,10.441638 8.7873392,10.2960215 L5.95617271,7.40756329 C5.66016542,7.10678169 5.66493973,6.62218911 5.96810849,6.32618182 C6.26889009,6.03017453 6.75348267,6.03494884 7.04948996,6.3381176 L9.34115929,8.67514289 L13.6762338,4.33768124 C13.9746282,4.0392868 14.4592208,4.0392868 14.7576152,4.33768124 C15.0536225,4.63607569 15.0536225,5.12066827 14.7552281,5.41906271 L14.7552281,5.41906271 Z" id="path-1"></path>
        <filter x="-35.3%" y="-26.3%" width="170.7%" height="173.6%" filterUnits="objectBoundingBox" id="filter-2">
            <feOffset dx="0" dy="2" in="SourceAlpha" result="shadowOffsetOuter1"></feOffset>
            <feGaussianBlur stdDeviation="2" in="shadowOffsetOuter1" result="shadowBlurOuter1"></feGaussianBlur>
            <feColorMatrix values="0 0 0 0 0.301960784   0 0 0 0 0.345098039   0 0 0 0 0.396078431  0 0 0 0.2 0" type="matrix" in="shadowBlurOuter1"></feColorMatrix>
        </filter>
    </defs>
    <g id="PC端样稿" stroke="none" stroke-width="1" fill="none" fill-rule="evenodd">
        <g id="侧边导航icon" transform="translate(-46.000000, -199.000000)" fill-rule="nonzero">
            <g id="形状" transform="translate(50.000000, 201.000000)">
                <use fill="black" fill-opacity="1" filter="url(#filter-2)" xlink:href="#path-1"></use>
                <use fill="#4D5865" xlink:href="#path-1"></use>
            </g>
        </g>
    </g>
</svg>