<?xml version="1.0" encoding="UTF-8"?>
<svg width="12px" height="12px" viewBox="0 0 12 12" version="1.1" xmlns="http://www.w3.org/2000/svg" xmlns:xlink="http://www.w3.org/1999/xlink">
    <title>Shape</title>
    <g id="PC端样稿" stroke="none" stroke-width="1" fill="none" fill-rule="evenodd">
        <g id="用印申请" transform="translate(-331.000000, -192.000000)" fill="#999999" fill-rule="nonzero" stroke="#999999" stroke-width="0.5">
            <g id="表单" transform="translate(280.000000, 140.000000)">
                <g id="表单:20/Select选择器:110/提示文案/基本:10备份" transform="translate(40.000000, 40.000000)">
                    <path d="M21.2902477,17.645128 C21.2902477,18.8004575 20.8686134,19.8571563 20.17065,20.6696957 C20.1820841,20.6780331 20.1932801,20.688038 20.2039996,20.6985192 L21.8881586,22.3829127 C22.0315579,22.5184856 22.0379025,22.7446373 21.9023292,22.8880365 C21.7667563,23.0314357 21.5406046,23.0377803 21.3972054,22.902207 C21.3923913,22.8976556 21.3877046,22.8929712 21.383151,22.8881592 L19.698523,21.2040002 C19.6880812,21.1934954 19.678296,21.1823578 19.669223,21.1706505 C18.8281997,21.8946424 17.7548511,22.2920238 16.6451242,22.2902484 C14.0795864,22.2902484 12,20.210662 12,17.6451242 C12,15.0795864 14.0795864,13 16.6451242,13 C19.2106614,13 21.2902477,15.0795902 21.2902477,17.645128 Z M16.6451235,13.7146383 C14.4742985,13.7146383 12.7146338,15.4743029 12.7146338,17.645128 C12.7146338,19.8159531 14.4742985,21.5756177 16.6451235,21.5756177 C18.8159486,21.5756177 20.5756132,19.8159531 20.5756132,17.645128 C20.5756132,15.4743029 18.8159486,13.7146383 16.6451235,13.7146383 Z" id="Shape"></path>
                </g>
            </g>
        </g>
    </g>
</svg>