<svg id="图层_1" data-name="图层 1" xmlns="http://www.w3.org/2000/svg" viewBox="0 0 841.89 595.28"><defs><style>.cls-1{fill:#fff;}</style></defs><title>景同舟</title><path class="cls-1" d="M253.16,485.54a7.27,7.27,0,0,1,1.65,1c.69.41,1.86,1.23,3.5,2.47a8.73,8.73,0,0,1,2.06,1.65l-1.85,2.47q-1.85,2.48-3.71,4.53a41.57,41.57,0,0,1-3.91,3.09A19.45,19.45,0,0,1,247.8,503a28.78,28.78,0,0,1-3.5,1.65,35.44,35.44,0,0,1-3.92,1.44c-1.37.27-2.88.54-4.53.82s-3,.21-4.32.21a14,14,0,0,1-2.27-.31c-.14-.07-.14-.45,0-1.13l.21-1,2.06-.62a19.19,19.19,0,0,0,3.91-1.23,13.33,13.33,0,0,0,3.09-1.86,18,18,0,0,0,3.5-2.88,45.6,45.6,0,0,0,5.15-5.15c1.92-2.19,3.36-3.91,4.32-5.14A9.54,9.54,0,0,1,253.16,485.54Zm18.74-35.61h4.53l-.21,1a24.6,24.6,0,0,1-.62,2.68,15.64,15.64,0,0,1-1,2.68l-.82,1h17.91l17.91.2v1.86l.21,1.85H233.39v-3.91h33.76v-7.41Zm-25.73-26.36h4.32v2.89h41.59v-2.89h6.79v9.88q0,9.69-.41,11.53a8.16,8.16,0,0,1-2.06,4.22,5.71,5.71,0,0,1-2,1.44,4.68,4.68,0,0,1-1.75.52c-.41,0-.62-.35-.62-1V448.9H247.39l-.82.83a9.4,9.4,0,0,1-1.44,1.23,7.24,7.24,0,0,1-2.06.21h-1.44V423.58Zm46.73,40.36h3.5v6.59a47.37,47.37,0,0,1-.41,8.24,20.27,20.27,0,0,1-1,3.08,7.69,7.69,0,0,1-1.65,2.47,10.13,10.13,0,0,1-3.6,1.65,5.15,5.15,0,0,1-.31-1.65v-1.44l-6.8-.2h-7v16.88l-.83,2.26a17.09,17.09,0,0,1-1.65,3.5,7.71,7.71,0,0,1-1.75,2.27,6.18,6.18,0,0,1-1.75,1.23,6.33,6.33,0,0,1-1.85.2h-1V495.84l-.21-13-8-.2h-7.83l-.82,1a6.43,6.43,0,0,1-1.75,1.85,4.14,4.14,0,0,1-2.37.63H244.1V464.34h4.53q4.52,0,4.53.52t18.12.52h18.12v-1.44ZM271.27,440H250.68l-.41,1.44a11.26,11.26,0,0,1-.62,2.48l-.21,1h42.62V440Zm0-9.67H250.48v5.56h41.59v-5.56Zm0,38.91H253.16v3.08a19,19,0,0,1-.41,4.74l-.41,1.85h37.06v-9.67Zm15.23,17.5a6.71,6.71,0,0,1,1.65.41,15.21,15.21,0,0,1,3.5,1.65,30,30,0,0,1,4.53,2.88,78.09,78.09,0,0,1,6.38,5.56c2.61,2.6,3.88,4,3.81,4.12a43.41,43.41,0,0,1-4.22,2.68c-2.75,1.78-4.15,2.68-4.22,2.68a12.37,12.37,0,0,1-1.34-1.85c-.69-1.11-1.72-2.54-3.09-4.33a68.81,68.81,0,0,0-4.73-5.56q-3.09-3.09-3.91-3.7a7.39,7.39,0,0,1-1.23-1.13,15.87,15.87,0,0,1,1.23-1.75C285.69,487.33,286.23,486.79,286.51,486.79Z"/><path class="cls-1" d="M387.83,422.72h4.53v1.65l.2,1.44h53.32v-3.29h9.06V461q0,38.3-.41,39.94a21.46,21.46,0,0,1-.82,2.68,7.54,7.54,0,0,1-1.44,2.17,6.81,6.81,0,0,1-2.16,1.64,6.12,6.12,0,0,1-2.57.52h-1.65v-78H392.35v35.41q0,35.62-.31,37.47a10.85,10.85,0,0,1-.93,3.08,9.54,9.54,0,0,1-1.85,2.47,7.62,7.62,0,0,1-2.47,1.44,3.8,3.8,0,0,1-2.06.21h-1l-.21-43.65V422.51Zm31.09,18.73H443.2l.21,1.86v2.05H394v-1.85a4.94,4.94,0,0,1,.21-2.06Zm-14.82,11.74h3.71v2.26H429v-2.26h7.2L436,466.36q0,13.39-.52,14.92a8.39,8.39,0,0,1-1.23,2.48,12.11,12.11,0,0,1-1.55,1.64,3.31,3.31,0,0,1-2.26.73l-1.44.2V480H407.38L407,481.4c-.41,1-.69,1.64-.82,2.06s-.58.82-.92,1.23a3.85,3.85,0,0,1-1.55,1,5.41,5.41,0,0,1-2.06.42h-1V453.19Zm14.21,6.18H407.8v16.47H429V459.37Z"/><path class="cls-1" d="M562.9,422.76h4.74v1.64a12.92,12.92,0,0,1-.41,3.09,19.22,19.22,0,0,1-.83,2.88,8.07,8.07,0,0,1-1,1.85,7.09,7.09,0,0,1-1.44,1.44l-1,.62h20v-1.43l4.32-.21h4.32v31.08h21.21v3.92H591.51v16.88q0,16.69-.41,18.12a17.1,17.1,0,0,1-1.44,2.68,11.37,11.37,0,0,1-1.85,1.85,20.73,20.73,0,0,1-2.26,1.44c-1,.42-1.65.69-2.06.83h-.62V467.64H567.22l-15.44.2-.2,8.45a74.22,74.22,0,0,1-.62,10.09,30.89,30.89,0,0,1-1,4.11,22.54,22.54,0,0,1-1.85,4.33q-1.23,2.27-2.47,4.12a26.87,26.87,0,0,1-6.79,6.8q-1.65,1.23-4.32,2.88a12.77,12.77,0,0,1-2.88,1.23c-.28,0-.41-.48-.41-1.43v-1.65l1.65-1a33.38,33.38,0,0,0,6-6.39,20.88,20.88,0,0,0,1.85-3.29,29.17,29.17,0,0,0,1.24-3.7q.61-2.27.62-13.38l.2-11.32h-17.5v-3.92h17.5V432.85l4.53-.21h4.32v1.64h6.79V422.76Zm4.53,15.64q-15.64,0-15.75.11c-.07.06-.1,4.29-.1,12.66v12.56h31.29V438.4Zm-5.66,1.44c.07-.27.14-.41.21-.41a5.24,5.24,0,0,1,.92.41,4.53,4.53,0,0,1,1.65,2.06,37,37,0,0,0,2.16,3.7,31.82,31.82,0,0,0,2.78,3.71,19.25,19.25,0,0,0,2.68,2.88c.83.68,1.24,1.1,1.24,1.23a21.83,21.83,0,0,1-3.81,2.26,41,41,0,0,1-4,2.06c-.14,0-.48-.34-1-1a20.05,20.05,0,0,1-1.23-2.47,14,14,0,0,1-1.24-3.3,35.45,35.45,0,0,1-.41-6.38C561.66,441.69,561.7,440.12,561.76,439.84Zm1.75,31.29a2.22,2.22,0,0,1,.82.42q.61.2,1.65,2.26,1.23,1.85,2.88,4.43a22.64,22.64,0,0,0,3.91,4.64l2.27,2.47-2.89,1.44a14.93,14.93,0,0,1-2.26,1.33,10.59,10.59,0,0,0-1.65.93c-.83.41-1.37.45-1.65.1a18,18,0,0,1-1.44-2.58,12.74,12.74,0,0,1-1.65-4.32,34.53,34.53,0,0,1-.41-6,25.14,25.14,0,0,1,.21-4.33C563.31,471.41,563.38,471.13,563.51,471.13Z"/><path class="cls-1" d="M444.06,161.46H387.31a11.32,11.32,0,0,1-11.3-11.3v-5a11.32,11.32,0,0,1,11.3-11.3h56.75a11.32,11.32,0,0,1,11.3,11.3v5A11.32,11.32,0,0,1,444.06,161.46ZM387.31,140a5.18,5.18,0,0,0-5.17,5.17v5a5.18,5.18,0,0,0,5.17,5.17h56.75a5.18,5.18,0,0,0,5.17-5.17v-5a5.18,5.18,0,0,0-5.17-5.17Z"/><path class="cls-1" d="M452.29,267.6a3.07,3.07,0,0,1-3.07-3.07V230.92a5.18,5.18,0,0,0-5.17-5.17H387.31a5.18,5.18,0,0,0-5.17,5.17v33.61a3.07,3.07,0,0,1-6.13,0V230.92a11.32,11.32,0,0,1,11.3-11.3h56.75a11.32,11.32,0,0,1,11.3,11.3v33.61A3.07,3.07,0,0,1,452.29,267.6Z"/><path class="cls-1" d="M452.29,375.87a3.07,3.07,0,0,1-3.07-3.07V286.1a5.18,5.18,0,0,0-5.17-5.17H387.31a3.07,3.07,0,0,1,0-6.13h56.75a11.32,11.32,0,0,1,11.3,11.3v86.7A3.07,3.07,0,0,1,452.29,375.87Z"/><path class="cls-1" d="M371.59,356.73a3.07,3.07,0,0,1-1.19-5.9c4.54-1.9,5.59-10.65,5.6-13.57V264.53a3.07,3.07,0,1,1,6.13,0v72.75c0,1.56-.26,15.42-9.36,19.22A3,3,0,0,1,371.59,356.73Z"/><path class="cls-1" d="M447.36,200.95H384a8,8,0,0,1-8-8v-4.83a8,8,0,0,1,8-8h63.35a8,8,0,0,1,8,8v4.83A8,8,0,0,1,447.36,200.95ZM384,186.25a1.87,1.87,0,0,0-1.87,1.87v4.83a1.87,1.87,0,0,0,1.87,1.87h63.35a1.87,1.87,0,0,0,1.87-1.87v-4.83a1.87,1.87,0,0,0-1.87-1.87Z"/><path class="cls-1" d="M432,266.29H399.38a11.32,11.32,0,0,1-11.3-11.3v-.91a11.32,11.32,0,0,1,11.3-11.3H432a11.32,11.32,0,0,1,11.31,11.3V255A11.32,11.32,0,0,1,432,266.29ZM399.38,248.9a5.18,5.18,0,0,0-5.17,5.17V255a5.18,5.18,0,0,0,5.17,5.17H432a5.18,5.18,0,0,0,5.18-5.17v-.91A5.18,5.18,0,0,0,432,248.9Z"/><path class="cls-1" d="M439.86,150.72H391.51a3.07,3.07,0,1,1,0-6.13h48.35a3.07,3.07,0,0,1,0,6.13Z"/><path class="cls-1" d="M601.66,175.37H379.07a3.07,3.07,0,0,1,0-6.13H601.66c1,0,24.07-.28,24.07-18.16a3.07,3.07,0,0,1,6.13,0C631.85,170.29,612.1,175.37,601.66,175.37Z"/><path class="cls-1" d="M462.82,308.59H240.23c-10.44,0-30.2-5.08-30.2-24.28a3.07,3.07,0,1,1,6.13,0c0,17.95,23.08,18.15,24.07,18.15H462.82a3.07,3.07,0,1,1,0,6.13Z"/><path class="cls-1" d="M415.68,174.76a3.07,3.07,0,0,1-3.07-3.07v-5.3a3.07,3.07,0,1,1,6.13,0v5.3A3.07,3.07,0,0,1,415.68,174.76Z"/><path class="cls-1" d="M415.68,217.68a3.07,3.07,0,0,1-3.07-3.07V199.19a3.07,3.07,0,0,1,6.13,0v15.42A3.07,3.07,0,0,1,415.68,217.68Z"/><path class="cls-1" d="M383.2,217.68a3.07,3.07,0,0,1-3.07-3.07V207.5a3.07,3.07,0,1,1,6.13,0v7.12A3.07,3.07,0,0,1,383.2,217.68Z"/><path class="cls-1" d="M448.17,217.68a3.07,3.07,0,0,1-3.07-3.07V207.5a3.07,3.07,0,1,1,6.13,0v7.12A3.07,3.07,0,0,1,448.17,217.68Z"/><path class="cls-1" d="M439.36,238H390.27a3.07,3.07,0,1,1,0-6.13h49.09a3.07,3.07,0,1,1,0,6.13Z"/><path class="cls-1" d="M415.68,321.9a3.07,3.07,0,0,1-3.07-3.07V295.49a3.07,3.07,0,0,1,6.13,0v23.35A3.07,3.07,0,0,1,415.68,321.9Z"/><path class="cls-1" d="M287.05,294.91A146.83,146.83,0,0,1,270,226c0-81.48,66.29-147.77,147.77-147.77a148,148,0,0,1,133,83.49h6.75A154.08,154.08,0,0,0,417.73,72.12c-84.86,0-153.9,69-153.9,153.9a152.91,152.91,0,0,0,16.34,68.89Z"/><path class="cls-1" d="M565.23,182.17h-6.37A147.27,147.27,0,0,1,565.5,226c0,81.48-66.29,147.77-147.77,147.77A147.61,147.61,0,0,1,300.1,315.34h-7.59a153.78,153.78,0,0,0,125.22,64.59c84.86,0,153.91-69,153.91-153.9A153.36,153.36,0,0,0,565.23,182.17Z"/></svg>